<?xml version="1.0" encoding="utf-8"?>
<!-- Generator: Adobe Illustrator 23.0.2, SVG Export Plug-In . SVG Version: 6.00 Build 0)  -->
<svg version="1.1" id="OBJECTS" xmlns="http://www.w3.org/2000/svg" xmlns:xlink="http://www.w3.org/1999/xlink" x="0px" y="0px"
	 viewBox="0 0 491.6 216.8" style="enable-background:new 0 0 491.6 216.8;" xml:space="preserve">
<style type="text/css">
	.st0{fill:none;stroke:#FFBC4B;stroke-linecap:round;stroke-linejoin:round;stroke-miterlimit:10;}
	.st1{fill:#FFBC4B;}
	.st2{fill:#959595;}
	.st3{font-family:'Muli-Medium';}
	.st4{font-size:8px;}
	.st5{font-family:'Muli-ExtraBold';}
	.st6{font-family:'Muli-Bold';}
	.st7{fill:#161616;}
	.st8{fill:#F7A212;}
	.st9{fill:#253DC0;}
	.path {
        stroke-dasharray: 1000;
        stroke-dashoffset: 1000;
        animation: dash 5s linear forwards;
		height:300px;
      }
      
  @keyframes dash {
    to {
      stroke-dashoffset: 0;
    }
</style>
<path class="st0 path" d="M20.1,87.5h34.5c14.5,0,26.2,11.7,26.2,26.2v63.7c0,14.5,11.7,26.2,26.2,26.2h30.2c14.5,0,26.2-11.7,26.2-26.2
	v-47.5c0-14.5,11.7-26.2,26.2-26.2h19.8c14.5,0,26.2,11.7,26.2,26.2v9.8c0,14.5,11.7,26.2,26.2,26.2h26.6
	c14.5,0,26.2-11.7,26.2-26.2V47.2c0-14.5,11.7-26.2,26.2-26.2h25.6c14.5,0,26.2,11.7,26.2,26.2v23.2c0,14.5,11.7,26.2,26.2,26.2
	h42.1"/>
<circle class="st1" cx="19.6" cy="87.4" r="4.4"/>
<circle class="st1" cx="122.3" cy="203.6" r="4.4"/>
<circle class="st1" cx="198" cy="103.4" r="4.4"/>
<circle class="st1" cx="338" cy="21" r="4.4"/>
<circle class="st1" cx="461.2" cy="96.6" r="4.4"/>
<text transform="matrix(1 0 0 1 15.2057 54.4069)" class="st2 st3 st4">NGO Looking </text>
<text transform="matrix(1 0 0 1 15.2057 64.0069)" class="st2 st3 st4">for </text>
<text transform="matrix(1 0 0 1 27.6057 64.0069)" class="st2 st5 st4">Digital Services</text>
<text transform="matrix(1 0 0 1 15.2055 40.8389)" class="st6 st4">01</text>
<text transform="matrix(1 0 0 1 89.1735 143.8908)" class="st2 st3 st4">Qause being the</text>
<text transform="matrix(1 0 0 1 89.1735 153.4908)" class="st2 st3 st4">digital aggregator</text>
<text transform="matrix(1 0 0 1 89.1735 163.0908)" class="st2 st6 st4">helps NGO with</text>
<text transform="matrix(1 0 0 1 89.1735 172.6908)" class="st2 st6 st4">free services</text>
<text transform="matrix(1 0 0 1 89.1735 130.3228)" class="st6 st4">02</text>
<text transform="matrix(1 0 0 1 171.6251 51.794)" class="st2 st5 st4">Volunteers</text>
<text transform="matrix(1 0 0 1 171.6251 61.394)" class="st2 st5 st4">Web Profle</text>
<text transform="matrix(1 0 0 1 171.6251 70.994)" class="st2 st5 st4">Telecaller</text>
<text transform="matrix(1 0 0 1 171.6251 80.594)" class="st2 st5 st4">Social Media Manager</text>
<text transform="matrix(1 0 0 1 171.6251 90.194)" class="st2 st5 st4">and many more....</text>
<text transform="matrix(1 0 0 1 171.6252 24.5486)" class="st6 st4">03</text>
<text transform="matrix(1 0 0 1 170.8509 38.387)" class="st2 st3 st4">NGO Get Free Services</text>
<text transform="matrix(1 0 0 1 331.2701 57.181)" class="st2 st3 st4">Qause</text>
<text transform="matrix(1 0 0 1 331.2701 66.781)" class="st2 st3 st4">helps NGO</text>
<text transform="matrix(1 0 0 1 331.2701 76.381)" class="st2 st3 st4">with Growth</text>
<text transform="matrix(1 0 0 1 331.3347 43.5482)" class="st6 st4">04</text>
<g>
	<g>
		<path class="st7" d="M437.3,76.1h-0.5v-5h0.5V76.1z"/>
		<path class="st7" d="M438.9,72.8c0,0.2,0,0.4,0,0.5l0,0c0.2-0.4,0.7-0.6,1.1-0.6c0.8,0,1.2,0.5,1.2,1.3v2.1h-0.5v-1.8
			c0-0.7-0.2-1.1-0.9-1.1c-0.1,0-1,0.1-1,1.3v1.7h-0.5v-2.6c0-0.2,0-0.5,0-0.7h0.6V72.8z"/>
		<path class="st7" d="M444,73.6c-0.1-0.3-0.4-0.4-0.7-0.4c-0.3,0-0.7,0.1-0.7,0.5c0,0.3,0.2,0.4,0.6,0.5l0.5,0.1
			c0.5,0.1,0.8,0.4,0.8,0.9c0,0.7-0.6,1-1.3,1c-0.5,0-1-0.2-1.3-0.6l0.4-0.3c0.2,0.3,0.5,0.5,0.9,0.5s0.8-0.2,0.8-0.5
			s-0.3-0.4-0.6-0.5l-0.4-0.1c-0.2-0.1-0.8-0.2-0.8-0.9c0-0.7,0.6-1,1.2-1c0.5,0,0.9,0.2,1.1,0.6L444,73.6z"/>
		<path class="st7" d="M445.2,72.8h0.5v0.5l0,0c0.3-0.4,0.8-0.6,1.3-0.6c1,0,1.7,0.7,1.7,1.7s-0.7,1.7-1.7,1.7c-0.4,0-1-0.2-1.3-0.6
			l0,0v2.6h-0.5V72.8z M447,73.1c-0.8,0-1.3,0.6-1.3,1.3c0,0.7,0.6,1.3,1.3,1.3c0.8,0,1.2-0.6,1.2-1.3S447.7,73.1,447,73.1z"/>
		<path class="st7" d="M449.8,71.8c-0.2,0-0.3-0.1-0.3-0.3s0.2-0.3,0.3-0.3s0.3,0.1,0.3,0.3S449.9,71.8,449.8,71.8z M450,76.1h-0.5
			v-3.3h0.5V76.1z"/>
		<path class="st7" d="M451.1,73.8c0-0.3,0-0.5,0-1h0.5v0.6l0,0c0.1-0.4,0.5-0.7,1.1-0.7c0.1,0,0.2,0,0.3,0l-0.1,0.5
			c-0.1,0-0.1,0-0.3,0c-0.7,0-1,0.6-1,1.1v1.9h-0.5V73.8z"/>
		<path class="st7" d="M453.5,74.5c0.1,0.7,0.6,1.2,1.2,1.2c0.5,0,0.9-0.3,1.1-0.6l0.4,0.3c-0.4,0.5-0.9,0.7-1.4,0.7
			c-1,0-1.7-0.7-1.7-1.7s0.7-1.7,1.7-1.7s1.6,0.7,1.6,1.6v0.2H453.5z M455.7,74.2c0-0.6-0.4-1.1-1.1-1.1c-0.6,0-1.2,0.5-1.2,1.1
			H455.7z"/>
		<path class="st7" d="M463.2,75.3c-0.3,0.5-1,0.9-1.8,0.9c-1.5,0-2.6-1.1-2.6-2.6s1.1-2.6,2.6-2.6c0.6,0,1.3,0.2,1.7,0.8l-0.4,0.3
			c-0.2-0.3-0.8-0.7-1.3-0.7c-1.3,0-2,1-2,2.1s0.8,2.1,2,2.1c0.5,0,1.1-0.2,1.4-0.7L463.2,75.3z"/>
		<path class="st7" d="M463.8,70.8h0.5v2.5l0,0c0.2-0.4,0.7-0.6,1.1-0.6c0.8,0,1.2,0.5,1.2,1.3v2.1h-0.5v-1.8c0-0.7-0.2-1.1-0.9-1.1
			c-0.1,0-1,0.1-1,1.3v1.7h-0.5L463.8,70.8L463.8,70.8z"/>
		<path class="st7" d="M469.7,74L469.7,74c0-0.7-0.3-0.9-0.8-0.9c-0.4,0-0.7,0.1-1,0.4l-0.3-0.3c0.3-0.3,0.8-0.5,1.4-0.5
			s1.2,0.4,1.2,1.2v1.5c0,0.3,0,0.6,0.1,0.7h-0.4c0-0.2,0-0.4,0-0.5l0,0c-0.3,0.4-0.6,0.6-1.2,0.6s-1.1-0.3-1.1-1
			C467.6,74.1,468.9,74.1,469.7,74L469.7,74L469.7,74z M469.5,74.4c-0.5,0-1.5,0-1.5,0.7c0,0.4,0.4,0.6,0.8,0.6c0.7,0,1-0.5,1-1.1
			v-0.2H469.5z"/>
		<path class="st7" d="M471.6,72.8c0,0.2,0,0.4,0,0.5l0,0c0.2-0.4,0.7-0.6,1.1-0.6c0.8,0,1.2,0.5,1.2,1.3v2.1h-0.5v-1.8
			c0-0.7-0.2-1.1-0.9-1.1c-0.1,0-1,0.1-1,1.3v1.7H471v-2.6c0-0.2,0-0.5,0-0.7h0.6V72.8z"/>
		<path class="st7" d="M475.3,76.7c0.3,0.4,0.7,0.6,1.3,0.6c0.9,0,1.3-0.6,1.3-1.3v-0.6l0,0c-0.3,0.4-0.8,0.6-1.2,0.6
			c-0.9,0-1.7-0.7-1.7-1.7s0.7-1.7,1.7-1.7c0.4,0,0.9,0.1,1.3,0.6l0,0v-0.5h0.5V76c0,0.7-0.3,1.7-1.8,1.7c-0.7,0-1.2-0.2-1.6-0.7
			L475.3,76.7z M476.6,75.6c0.7,0,1.3-0.5,1.2-1.3c0-0.7-0.5-1.3-1.2-1.3s-1.2,0.6-1.2,1.3S475.9,75.6,476.6,75.6z"/>
		<path class="st7" d="M479.6,74.5c0.1,0.7,0.6,1.2,1.2,1.2c0.5,0,0.9-0.3,1.1-0.6l0.4,0.3c-0.4,0.5-0.9,0.7-1.4,0.7
			c-1,0-1.7-0.7-1.7-1.7s0.7-1.7,1.7-1.7s1.6,0.7,1.6,1.6v0.2H479.6z M481.8,74.2c0-0.6-0.4-1.1-1.1-1.1c-0.6,0-1.2,0.5-1.2,1.1
			H481.8z"/>
		<path class="st7" d="M483.5,76.1c-0.2,0-0.4-0.2-0.4-0.4s0.2-0.4,0.4-0.4s0.4,0.2,0.4,0.4S483.8,76.1,483.5,76.1z"/>
		<path class="st7" d="M439.6,82.5c0,0.8-0.3,2-1.8,2s-1.8-1.2-1.8-2v-3.1h0.5v3.1c0,1.4,0.9,1.6,1.3,1.6s1.3-0.1,1.3-1.6v-3.1h0.5
			V82.5z"/>
		<path class="st7" d="M440.7,81h0.5v0.5l0,0c0.3-0.4,0.8-0.6,1.3-0.6c1,0,1.7,0.7,1.7,1.7s-0.7,1.7-1.7,1.7c-0.4,0-1-0.2-1.3-0.6
			l0,0v2.6h-0.5V81z M442.4,81.4c-0.8,0-1.3,0.6-1.3,1.3c0,0.7,0.6,1.3,1.3,1.3c0.8,0,1.2-0.6,1.2-1.3
			C443.7,82,443.2,81.4,442.4,81.4z"/>
		<path class="st7" d="M445.5,84.3H445V79h0.5V84.3z"/>
		<path class="st7" d="M446.8,80.1c-0.2,0-0.3-0.1-0.3-0.3c0-0.2,0.2-0.3,0.3-0.3c0.2,0,0.3,0.1,0.3,0.3
			C447.2,80,447,80.1,446.8,80.1z M447.1,84.3h-0.5V81h0.5V84.3z"/>
		<path class="st7" d="M449.7,81.5h-0.8v2.9h-0.5v-2.9h-0.7V81h0.7v-0.9c0-0.9,0.4-1.2,1.1-1.2c0.1,0,0.3,0,0.4,0l-0.1,0.4
			c-0.1,0-0.2,0-0.4,0c-0.5,0-0.6,0.4-0.6,0.8V81h0.8v0.5H449.7z"/>
		<path class="st7" d="M451.8,81.5h-0.9v1.9c0,0.5,0.2,0.6,0.5,0.6c0.2,0,0.3,0,0.5-0.1v0.4c-0.2,0.1-0.4,0.1-0.6,0.1
			c-0.4,0-0.8-0.2-0.8-0.9v-2.1h-0.7V81h0.7v-0.9h0.5V81h0.9v0.5H451.8z"/>
		<path class="st7" d="M454.5,79.4h0.5v2.2h2.7v-2.2h0.5v5h-0.5V82H455v2.4h-0.5V79.4z"/>
		<path class="st7" d="M461.7,84.3c0-0.2,0-0.4,0-0.5l0,0c-0.2,0.4-0.7,0.6-1.1,0.6c-0.8,0-1.2-0.5-1.2-1.3V81h0.5v1.8
			c0,0.7,0.2,1.1,0.9,1.1c0.1,0,1-0.1,1-1.3V81h0.5v2.6c0,0.2,0,0.5,0,0.7C462.3,84.3,461.7,84.3,461.7,84.3z"/>
		<path class="st7" d="M463.1,81.8c0-0.2,0-0.5,0-0.7h0.5v0.5l0,0c0.2-0.4,0.7-0.6,1.1-0.6s0.8,0.1,1,0.7c0.2-0.4,0.6-0.7,1.1-0.7
			c0.8,0,1.2,0.5,1.2,1.3v2.1h-0.5v-1.9c0-0.7-0.2-1-0.8-1c-0.7,0-0.9,0.6-0.9,1.2v1.7h-0.5v-1.9c0-0.7-0.2-1-0.8-1
			c-0.1,0-0.9,0.1-0.9,1.3v1.7h-0.5L463.1,81.8L463.1,81.8z"/>
		<path class="st7" d="M471.1,82.3L471.1,82.3c0-0.7-0.3-0.9-0.8-0.9c-0.4,0-0.7,0.1-1,0.4l-0.3-0.3c0.3-0.3,0.8-0.5,1.4-0.5
			s1.2,0.4,1.2,1.2v1.5c0,0.3,0,0.6,0.1,0.7h-0.4c0-0.2,0-0.4,0-0.5l0,0c-0.3,0.4-0.6,0.6-1.2,0.6s-1.1-0.3-1.1-1
			C469,82.4,470.3,82.4,471.1,82.3L471.1,82.3L471.1,82.3z M470.9,82.7c-0.5,0-1.5,0-1.5,0.7c0,0.4,0.4,0.6,0.8,0.6
			c0.7,0,1-0.5,1-1.1v-0.2H470.9z"/>
		<path class="st7" d="M473.1,81c0,0.2,0,0.4,0,0.5l0,0c0.2-0.4,0.7-0.6,1.1-0.6c0.8,0,1.2,0.5,1.2,1.3v2.1H475v-1.8
			c0-0.7-0.2-1.1-0.9-1.1c-0.1,0-1,0.1-1,1.3v1.7h-0.5v-2.6c0-0.2,0-0.5,0-0.7h0.5V81z"/>
		<path class="st7" d="M476.8,80.1c-0.2,0-0.3-0.1-0.3-0.3c0-0.2,0.2-0.3,0.3-0.3s0.3,0.1,0.3,0.3C477.1,80,476.9,80.1,476.8,80.1z
			 M477,84.3h-0.5V81h0.5V84.3z"/>
		<path class="st7" d="M479.8,81.5h-0.9v1.9c0,0.5,0.2,0.6,0.5,0.6c0.2,0,0.3,0,0.5-0.1v0.4c-0.2,0.1-0.4,0.1-0.6,0.1
			c-0.4,0-0.8-0.2-0.8-0.9v-2.1h-0.7V81h0.7v-0.9h0.5V81h0.9v0.5H479.8z"/>
		<path class="st7" d="M481.5,83.8l1-2.7h0.6l-1.6,4.1c-0.2,0.5-0.5,0.8-1,0.8c-0.1,0-0.3,0-0.4,0v-0.4c0.1,0.1,0.2,0.1,0.4,0.1
			c0.3,0,0.5-0.2,0.6-0.6l0.2-0.6l-1.3-3.3h0.6L481.5,83.8z"/>
	</g>
	<path class="st7" d="M483.8,84.4c-0.2,0-0.4-0.2-0.4-0.4c0-0.2,0.2-0.4,0.4-0.4s0.4,0.2,0.4,0.4C484.2,84.2,484.1,84.4,483.8,84.4z
		"/>
</g>
<g>
	<path class="st8" d="M440.9,27c3.2,0.7,6-2.1,5.3-5.3c-0.4-1.6-1.7-2.9-3.3-3.3c-3.2-0.7-6,2.1-5.3,5.3
		C438,25.3,439.3,26.6,440.9,27z"/>
</g>
<g>
	<path class="st8" d="M472.8,18.4c-3.2-0.7-6,2.1-5.3,5.3c0.4,1.6,1.7,2.9,3.3,3.3c3.2,0.7,6-2.1,5.3-5.3
		C475.7,20.1,474.4,18.8,472.8,18.4z"/>
</g>
<path class="st9" d="M475.8,33h-6.7c-0.8,0-1.4,0.6-1.4,1.4v6.5c0,6.8-4.5,11.6-11,11.6c-6.4,0-10.9-4.8-10.9-11.7v-6.3
	c0-0.8-0.6-1.4-1.4-1.4h-6.7c-0.8,0-1.4,0.6-1.4,1.4v6.8c0,11.6,8.7,20.3,20.3,20.3c11.7,0,20.5-8.7,20.5-20.3v-6.8
	C477.2,33.7,476.5,33,475.8,33z"/>
</svg>
